<svg width="92" height="821" viewBox="0 0 92 821" fill="none" xmlns="http://www.w3.org/2000/svg">
<path d="M25 797.53C25 790.077 26.69 784.66 30.07 781.28C33.3633 777.813 38.65 776.08 45.93 776.08H90V786.61H79.86C87.66 791.637 91.56 797.313 91.56 803.64C91.56 808.667 89.8267 812.697 86.36 815.73C82.8933 818.677 78.17 820.15 72.19 820.15H68.55C63.35 820.15 59.06 818.373 55.68 814.82C52.2133 811.267 50.48 806.5 50.48 800.52C50.48 797.227 51.0433 792.763 52.17 787.13H45.02C41.2933 787.13 38.6067 787.997 36.96 789.73C35.3133 791.377 34.49 793.977 34.49 797.53C34.49 801.69 35.14 807.54 36.44 815.08H26.95C25.65 806.933 25 801.083 25 797.53ZM59.06 797.79C59.06 801.43 60.0133 804.203 61.92 806.11C63.8267 808.017 66.5133 808.97 69.98 808.97H71.41C74.6167 808.97 77.13 808.233 78.95 806.76C80.77 805.287 81.68 803.423 81.68 801.17C81.68 798.83 80.6833 796.447 78.69 794.02C76.61 791.507 73.7067 789.21 69.98 787.13H59.97C59.3633 790.423 59.06 793.977 59.06 797.79ZM35.01 728.602C31.8033 726.348 29.3333 723.748 27.6 720.802C25.8667 717.855 25 714.778 25 711.572C25 706.198 26.9067 702.038 30.72 699.092C34.4467 696.145 39.9067 694.672 47.1 694.672H67.64C75.5267 694.672 81.5067 696.535 85.58 700.262C89.5667 703.988 91.56 709.752 91.56 717.552C91.56 725.178 89.61 730.768 85.71 734.322C81.81 737.875 75.8733 739.652 67.9 739.652H1.21L1.21 728.602H35.01ZM34.88 714.172C34.88 716.685 35.8333 719.242 37.74 721.842C39.6467 724.442 42.2467 726.695 45.54 728.602H69.2C73.4467 728.602 76.6967 727.648 78.95 725.742C81.2033 723.748 82.33 721.018 82.33 717.552C82.33 709.665 77.8667 705.722 68.94 705.722H48.66C39.4733 705.722 34.88 708.538 34.88 714.172ZM25 636.73C25 629.017 27.08 623.297 31.24 619.57C35.3133 615.757 41.12 613.85 48.66 613.85H67.9C75.44 613.85 81.29 615.757 85.45 619.57C89.5233 623.297 91.56 629.017 91.56 636.73C91.56 644.443 89.5233 650.207 85.45 654.02C81.29 657.747 75.44 659.61 67.9 659.61H48.66C41.12 659.61 35.3133 657.747 31.24 654.02C27.08 650.207 25 644.443 25 636.73ZM34.23 636.73C34.23 640.457 35.4 643.36 37.74 645.44C40.08 647.52 43.4167 648.56 47.75 648.56H68.81C73.1433 648.56 76.48 647.52 78.82 645.44C81.16 643.36 82.33 640.457 82.33 636.73C82.33 633.003 81.16 630.1 78.82 628.02C76.48 625.94 73.1433 624.9 68.81 624.9H47.62C43.2867 624.9 39.9933 625.94 37.74 628.02C35.4 630.1 34.23 633.003 34.23 636.73ZM90 533.292V543.692H80.9C84.3667 546.032 87.01 548.632 88.83 551.492C90.65 554.352 91.56 557.385 91.56 560.592C91.56 565.878 89.74 570.038 86.1 573.072C82.3733 576.018 76.9567 577.492 69.85 577.492H26.56V566.442H67.9C72.4933 566.442 75.8733 565.748 78.04 564.362C80.2067 562.888 81.29 560.895 81.29 558.382C81.29 556.042 80.38 553.615 78.56 551.102C76.6533 548.502 74.0533 546.248 70.76 544.342H26.56L26.56 533.292H90ZM26.56 482.531V465.631H35.66V482.531H72.84C76.1333 482.531 78.5167 481.881 79.99 480.581C81.3767 479.194 82.07 477.071 82.07 474.211C82.07 470.571 81.6367 467.018 80.77 463.551L90 463.291C91.04 467.104 91.56 470.571 91.56 473.691C91.56 480.624 90.0433 485.694 87.01 488.901C83.89 492.021 78.8633 493.581 71.93 493.581H35.66V502.681H26.56V493.581L9.66 491.501V482.531H26.56ZM25 371.046C25 367.406 25.52 363.029 26.56 357.916L35.92 358.176C34.88 362.682 34.36 366.799 34.36 370.526C34.36 378.326 36.8733 382.226 41.9 382.226H43.07C44.63 382.226 45.8867 381.836 46.84 381.056C47.7933 380.189 48.79 378.672 49.83 376.506L55.55 364.286C59.0167 356.919 64.0867 353.236 70.76 353.236H73.62C79.6 353.322 84.1067 355.142 87.14 358.696C90.0867 362.162 91.56 367.666 91.56 375.206C91.56 379.106 90.65 384.696 88.83 391.976L78.95 391.456C80.8567 384.956 81.81 379.626 81.81 375.466C81.81 371.219 81.2467 368.272 80.12 366.626C78.9067 364.979 76.9567 364.156 74.27 364.156H72.97C70.89 364.156 69.2433 364.589 68.03 365.456C66.8167 366.236 65.7767 367.579 64.91 369.486L59.32 382.096C57.5867 385.909 55.5067 388.726 53.08 390.546C50.6533 392.279 47.8367 393.146 44.63 393.146H42.81C36.9167 392.972 32.4967 391.152 29.55 387.686C26.5167 384.132 25 378.586 25 371.046ZM26.56 307.107L26.56 290.207H35.66L35.66 307.107H72.84C76.1333 307.107 78.5167 306.457 79.99 305.157C81.3767 303.77 82.07 301.647 82.07 298.787C82.07 295.147 81.6367 291.594 80.77 288.127L90 287.867C91.04 291.68 91.56 295.147 91.56 298.267C91.56 305.2 90.0433 310.27 87.01 313.477C83.89 316.597 78.8633 318.157 71.93 318.157H35.66V327.257H26.56V318.157L9.66 316.077V307.107H26.56ZM90 212.481V222.881H80.9C84.3667 225.221 87.01 227.821 88.83 230.681C90.65 233.541 91.56 236.575 91.56 239.781C91.56 245.068 89.74 249.228 86.1 252.261C82.3733 255.208 76.9567 256.681 69.85 256.681H26.56V245.631H67.9C72.4933 245.631 75.8733 244.938 78.04 243.551C80.2067 242.078 81.29 240.085 81.29 237.571C81.29 235.231 80.38 232.805 78.56 230.291C76.6533 227.691 74.0533 225.438 70.76 223.531H26.56V212.481H90ZM90 131.04V141.57H79.73C87.6167 146.77 91.56 152.707 91.56 159.38C91.56 164.754 89.74 168.87 86.1 171.73C82.3733 174.59 76.9567 176.02 69.85 176.02H46.71C39.8633 176.02 34.5333 174.46 30.72 171.34C26.9067 168.134 25 163.584 25 157.69C25 155.177 25.65 152.534 26.95 149.76C28.1633 146.987 29.68 144.43 31.5 142.09H1.21V131.04H90ZM34.88 155.22C34.88 158.34 36.0067 160.767 38.26 162.5C40.4267 164.147 43.7633 164.97 48.27 164.97H68.42C77.26 164.97 81.68 162.24 81.68 156.78C81.68 154.18 80.6833 151.624 78.69 149.11C76.61 146.51 73.7067 144.17 69.98 142.09H41.38C39.4733 143.91 37.9133 146.077 36.7 148.59C35.4867 151.017 34.88 153.227 34.88 155.22ZM26.56 82.3441H90V93.3941H26.56V82.3441ZM0.949992 87.9341C0.949992 85.5941 1.46999 83.8175 2.51 82.6041C3.55 81.3041 5.02333 80.6541 6.92999 80.6541H10.7C12.6067 80.6541 14.08 81.3041 15.12 82.6041C16.0733 83.8175 16.55 85.5941 16.55 87.9341C16.55 90.1875 16.0733 91.9641 15.12 93.2641C14.08 94.4775 12.6067 95.0841 10.7 95.0841H6.92999C5.02333 95.0841 3.55 94.4775 2.51 93.2641C1.46999 91.9641 0.949992 90.1875 0.949992 87.9341ZM25 23.1149C25 15.4016 27.08 9.68159 31.24 5.95492C35.3133 2.14158 41.12 0.234918 48.66 0.234918H67.9C75.44 0.234918 81.29 2.14158 85.45 5.95492C89.5233 9.68159 91.56 15.4016 91.56 23.1149C91.56 30.8283 89.5233 36.5916 85.45 40.4049C81.29 44.1316 75.44 45.9949 67.9 45.9949H48.66C41.12 45.9949 35.3133 44.1316 31.24 40.4049C27.08 36.5916 25 30.8283 25 23.1149ZM34.23 23.1149C34.23 26.8416 35.4 29.7449 37.74 31.8249C40.08 33.9049 43.4167 34.9449 47.75 34.9449H68.81C73.1433 34.9449 76.48 33.9049 78.82 31.8249C81.16 29.7449 82.33 26.8416 82.33 23.1149C82.33 19.3883 81.16 16.4849 78.82 14.4049C76.48 12.3249 73.1433 11.2849 68.81 11.2849H47.62C43.2867 11.2849 39.9933 12.3249 37.74 14.4049C35.4 16.4849 34.23 19.3883 34.23 23.1149Z" fill="black"/>
</svg>
