<svg width="98" height="456" viewBox="0 0 98 456" fill="none" xmlns="http://www.w3.org/2000/svg">
<path d="M76.54 425.537C83.7267 425.537 89.0467 427.263 92.5 430.717C95.9533 434.077 97.68 439.49 97.68 446.957C97.68 448.45 97.54 450.177 97.26 452.137C97.0733 454.003 96.8867 455.263 96.7 455.917H86.76C87.2267 453.303 87.46 450.13 87.46 446.397C87.46 443.41 86.7133 441.17 85.22 439.677C83.6333 438.183 81.0667 437.437 77.52 437.437H4.3V425.537H76.54ZM26 363.772C26 355.745 27.82 349.912 31.46 346.272C35.0067 342.538 40.7 340.672 48.54 340.672H96V352.012H85.08C93.48 357.425 97.68 363.538 97.68 370.352C97.68 375.765 95.8133 380.105 92.08 383.372C88.3467 386.545 83.26 388.132 76.82 388.132H72.9C67.3 388.132 62.68 386.218 59.04 382.392C55.3067 378.565 53.44 373.432 53.44 366.992C53.44 363.445 54.0467 358.638 55.26 352.572H47.56C43.5467 352.572 40.6533 353.505 38.88 355.372C37.1067 357.145 36.22 359.945 36.22 363.772C36.22 368.252 36.92 374.552 38.32 382.672H28.1C26.7 373.898 26 367.598 26 363.772ZM62.68 364.052C62.68 367.972 63.7067 370.958 65.76 373.012C67.8133 375.065 70.7067 376.092 74.44 376.092H75.98C79.4333 376.092 82.14 375.298 84.1 373.712C86.06 372.125 87.04 370.118 87.04 367.692C87.04 365.172 85.9667 362.605 83.82 359.992C81.58 357.285 78.4533 354.812 74.44 352.572H63.66C63.0067 356.118 62.68 359.945 62.68 364.052ZM26 281.141C26 277.221 26.56 272.508 27.68 267.001L37.76 267.281C36.64 272.134 36.08 276.568 36.08 280.581C36.08 288.981 38.7867 293.181 44.2 293.181H45.46C47.14 293.181 48.4933 292.761 49.52 291.921C50.5467 290.988 51.62 289.354 52.74 287.021L58.9 273.861C62.6333 265.928 68.0933 261.961 75.28 261.961H78.36C84.8 262.054 89.6533 264.014 92.92 267.841C96.0933 271.574 97.68 277.501 97.68 285.621C97.68 289.821 96.7 295.841 94.74 303.681L84.1 303.121C86.1533 296.121 87.18 290.381 87.18 285.901C87.18 281.328 86.5733 278.154 85.36 276.381C84.0533 274.608 81.9533 273.721 79.06 273.721H77.66C75.42 273.721 73.6467 274.188 72.34 275.121C71.0333 275.961 69.9133 277.408 68.98 279.461L62.96 293.041C61.0933 297.148 58.8533 300.181 56.24 302.141C53.6267 304.008 50.5933 304.941 47.14 304.941H45.18C38.8333 304.754 34.0733 302.794 30.9 299.061C27.6333 295.234 26 289.261 26 281.141ZM26 160.624C26 154.651 28.0533 150.077 32.16 146.904C36.1733 143.731 41.9133 142.144 49.38 142.144H96V154.044H51.06C41.7267 154.044 37.06 157.031 37.06 163.004C37.06 165.617 38.0867 168.324 40.14 171.124C42.1933 173.831 44.9933 176.211 48.54 178.264H96V190.164H51.06C41.7267 190.164 37.06 193.151 37.06 199.124C37.06 201.737 38.0867 204.444 40.14 207.244C42.1933 209.951 44.9933 212.331 48.54 214.384H96V226.284H27.68V215.084H37.9C34.0733 212.657 31.1333 209.857 29.08 206.684C27.0267 203.511 26 200.197 26 196.744C26 192.451 27.12 188.857 29.36 185.964C31.5067 183.071 34.68 180.971 38.88 179.664C34.68 177.144 31.5067 174.251 29.36 170.984C27.12 167.717 26 164.264 26 160.624ZM27.68 89.6145H96V101.514H27.68V89.6145ZM0.0999913 95.6345C0.0999913 93.1145 0.659992 91.2011 1.77999 89.8945C2.9 88.4945 4.48666 87.7945 6.53999 87.7945H10.6C12.6533 87.7945 14.24 88.4945 15.36 89.8945C16.3867 91.2011 16.9 93.1145 16.9 95.6345C16.9 98.0611 16.3867 99.9745 15.36 101.374C14.24 102.681 12.6533 103.334 10.6 103.334H6.53999C4.48666 103.334 2.9 102.681 1.77999 101.374C0.659992 99.9745 0.0999913 98.0611 0.0999913 95.6345ZM26 19.2491C26 13.2758 28.0533 8.70247 32.16 5.52914C36.1733 2.26247 41.9133 0.629139 49.38 0.629139H96V12.5291H51.06C41.7267 12.5291 37.06 15.5625 37.06 21.6291C37.06 24.3358 38.0867 27.0891 40.14 29.8891C42.1933 32.6891 44.9933 35.1158 48.54 37.1691H96V49.0691H27.68V37.8691H37.9C34.0733 35.3491 31.1333 32.5491 29.08 29.4691C27.0267 26.2958 26 22.8891 26 19.2491Z" fill="black"/>
</svg>
