<svg width="448" height="256" viewBox="0 0 448 256" fill="none" xmlns="http://www.w3.org/2000/svg">
<rect width="176" height="256" fill="white"/>
<path d="M76.7656 123.145C77.0781 122.52 77.599 122.025 78.3281 121.66C79.1094 121.244 79.9167 120.905 80.75 120.645C81.6354 120.384 82.4688 120.202 83.25 120.098C84.0312 119.994 84.5521 119.942 84.8125 119.942C85.9583 119.942 86.6354 120.176 86.8438 120.645C87.1042 121.114 87.2344 121.947 87.2344 123.145V173.692C89.8906 170.254 92.5469 166.556 95.2031 162.598C97.9115 158.588 100.307 154.499 102.391 150.332L103.172 148.692L106.375 151.114L105.594 152.754C104.552 154.838 103.302 157.025 101.844 159.317C100.438 161.608 98.9271 163.952 97.3125 166.348C95.6979 168.692 94.0052 171.035 92.2344 173.379C90.5156 175.723 88.849 177.963 87.2344 180.098V197.52C87.2344 202.311 86.7917 206.374 85.9062 209.707C85.0729 213.093 83.901 215.827 82.3906 217.91C80.8802 220.046 79.1094 221.582 77.0781 222.52C75.0469 223.457 72.8333 223.926 70.4375 223.926C68.9271 223.926 67.5469 223.692 66.2969 223.223C64.9948 222.754 63.875 222.051 62.9375 221.114C62 220.228 61.2708 219.134 60.75 217.832C60.2292 216.582 59.9688 215.15 59.9688 213.535C59.9688 211.192 60.4115 208.848 61.2969 206.504C62.1302 204.16 63.3281 201.739 64.8906 199.239C66.401 196.739 68.1719 194.16 70.2031 191.504C72.2344 188.9 74.4219 186.166 76.7656 183.301V149.551H75.9844L74.4219 152.754L71.2188 150.332L72 148.692C73.3021 146.035 74.2135 143.379 74.7344 140.723C75.3073 138.015 75.6719 135.489 75.8281 133.145C76.0365 130.801 76.1406 128.744 76.1406 126.973C76.1927 125.202 76.401 123.926 76.7656 123.145ZM69.5781 219.16C70.4115 219.16 71.2448 218.978 72.0781 218.614C72.9635 218.301 73.7448 217.546 74.4219 216.348C75.099 215.15 75.6458 213.379 76.0625 211.035C76.5312 208.692 76.7656 205.515 76.7656 201.504V189.707C74.9948 191.895 73.3802 194.004 71.9219 196.035C70.4115 198.119 69.1094 200.124 68.0156 202.051C66.9219 204.03 66.0625 205.931 65.4375 207.754C64.8125 209.577 64.5 211.348 64.5 213.067C64.5 214.681 64.9427 216.088 65.8281 217.285C66.7135 218.535 67.9635 219.16 69.5781 219.16ZM88.7969 103.926C88.7969 105.749 88.1719 107.285 86.9219 108.535C85.724 109.733 84.2135 110.332 82.3906 110.332C80.6198 110.332 79.1094 109.733 77.8594 108.535C76.6094 107.285 75.9844 105.749 75.9844 103.926C75.9844 102.155 76.6094 100.645 77.8594 99.3948C79.1094 98.1448 80.6198 97.5198 82.3906 97.5198C84.2135 97.5198 85.724 98.1448 86.9219 99.3948C88.1719 100.645 88.7969 102.155 88.7969 103.926Z" fill="black"/>
<path d="M221.145 116.895C223.125 116.895 225.71 117.188 228.9 117.775L228.79 121.9C225.783 121.313 223.235 121.02 221.145 121.02C219.018 121.02 217.478 121.441 216.525 122.285C215.608 123.128 215.15 124.411 215.15 126.135V127.565C215.15 128.481 215.26 129.215 215.48 129.765C215.737 130.278 216.177 130.736 216.8 131.14C217.423 131.506 218.358 131.891 219.605 132.295L224.72 134C227.177 134.843 228.9 135.961 229.89 137.355C230.917 138.748 231.43 140.783 231.43 143.46V144.505C231.43 147.768 230.477 150.206 228.57 151.82C226.7 153.433 223.62 154.24 219.33 154.24C217.24 154.24 214.563 153.873 211.3 153.14L211.41 148.905C214.453 149.638 217.057 150.005 219.22 150.005C221.97 150.005 223.913 149.601 225.05 148.795C226.187 147.951 226.755 146.65 226.755 144.89V143.075C226.755 141.791 226.462 140.82 225.875 140.16C225.325 139.463 224.335 138.876 222.905 138.4L217.24 136.53C214.71 135.686 212.95 134.605 211.96 133.285C210.97 131.928 210.475 129.893 210.475 127.18V126.575C210.475 123.385 211.318 120.983 213.005 119.37C214.728 117.72 217.442 116.895 221.145 116.895ZM242.702 126.74H249.852V130.59H242.702V146.32C242.702 147.713 242.977 148.721 243.527 149.345C244.113 149.931 245.012 150.225 246.222 150.225C247.762 150.225 249.265 150.041 250.732 149.675L250.842 153.58C249.228 154.02 247.762 154.24 246.442 154.24C243.508 154.24 241.363 153.598 240.007 152.315C238.687 150.995 238.027 148.868 238.027 145.935V130.59H234.177V126.74H238.027L238.907 119.59H242.702V126.74ZM274.486 153.58H270.086V149.73C269.096 151.196 267.996 152.315 266.786 153.085C265.576 153.855 264.292 154.24 262.936 154.24C260.699 154.24 258.939 153.47 257.656 151.93C256.409 150.353 255.786 148.061 255.786 145.055V126.74H260.461V144.23C260.461 146.173 260.754 147.603 261.341 148.52C261.964 149.436 262.807 149.895 263.871 149.895C264.861 149.895 265.887 149.51 266.951 148.74C268.051 147.933 269.004 146.833 269.811 145.44V126.74H274.486V153.58ZM300.691 153.58H296.236V149.235C294.036 152.571 291.525 154.24 288.701 154.24C286.428 154.24 284.686 153.47 283.476 151.93C282.266 150.353 281.661 148.061 281.661 145.055V135.265C281.661 132.368 282.321 130.113 283.641 128.5C284.998 126.886 286.923 126.08 289.416 126.08C290.48 126.08 291.598 126.355 292.771 126.905C293.945 127.418 295.026 128.06 296.016 128.83V116.015H300.691V153.58ZM290.461 130.26C289.141 130.26 288.115 130.736 287.381 131.69C286.685 132.606 286.336 134.018 286.336 135.925V144.45C286.336 148.19 287.491 150.06 289.801 150.06C290.901 150.06 291.983 149.638 293.046 148.795C294.146 147.915 295.136 146.686 296.016 145.11V133.01C295.246 132.203 294.33 131.543 293.266 131.03C292.24 130.516 291.305 130.26 290.461 130.26ZM313.044 126.74V153.58H308.369V126.74H313.044ZM310.679 115.905C311.669 115.905 312.42 116.125 312.934 116.565C313.484 117.005 313.759 117.628 313.759 118.435V120.03C313.759 120.836 313.484 121.46 312.934 121.9C312.42 122.303 311.669 122.505 310.679 122.505C309.725 122.505 308.974 122.303 308.424 121.9C307.91 121.46 307.654 120.836 307.654 120.03V118.435C307.654 117.628 307.91 117.005 308.424 116.565C308.974 116.125 309.725 115.905 310.679 115.905ZM329.852 126.08C333.115 126.08 335.535 126.96 337.112 128.72C338.725 130.443 339.532 132.9 339.532 136.09V144.23C339.532 147.42 338.725 149.895 337.112 151.655C335.535 153.378 333.115 154.24 329.852 154.24C326.589 154.24 324.15 153.378 322.537 151.655C320.96 149.895 320.172 147.42 320.172 144.23V136.09C320.172 132.9 320.96 130.443 322.537 128.72C324.15 126.96 326.589 126.08 329.852 126.08ZM329.852 129.985C328.275 129.985 327.047 130.48 326.167 131.47C325.287 132.46 324.847 133.871 324.847 135.705V144.615C324.847 146.448 325.287 147.86 326.167 148.85C327.047 149.84 328.275 150.335 329.852 150.335C331.429 150.335 332.657 149.84 333.537 148.85C334.417 147.86 334.857 146.448 334.857 144.615V135.65C334.857 133.816 334.417 132.423 333.537 131.47C332.657 130.48 331.429 129.985 329.852 129.985ZM269.074 204.935C269.074 207.758 268.396 209.848 267.039 211.205C265.719 212.561 263.592 213.24 260.659 213.24C260.072 213.24 259.394 213.185 258.624 213.075C257.891 213.001 257.396 212.928 257.139 212.855V208.95C258.166 209.133 259.412 209.225 260.879 209.225C262.052 209.225 262.932 208.931 263.519 208.345C264.106 207.721 264.399 206.713 264.399 205.32V176.555H269.074V204.935ZM285.089 185.08C288.242 185.08 290.534 185.795 291.964 187.225C293.431 188.618 294.164 190.855 294.164 193.935V212.58H289.709V208.29C287.582 211.59 285.181 213.24 282.504 213.24C280.377 213.24 278.672 212.506 277.389 211.04C276.142 209.573 275.519 207.575 275.519 205.045V203.505C275.519 201.305 276.271 199.49 277.774 198.06C279.277 196.593 281.294 195.86 283.824 195.86C285.217 195.86 287.106 196.098 289.489 196.575V193.55C289.489 191.973 289.122 190.836 288.389 190.14C287.692 189.443 286.592 189.095 285.089 189.095C283.329 189.095 280.854 189.37 277.664 189.92V185.905C281.111 185.355 283.586 185.08 285.089 185.08ZM284.979 199.49C283.439 199.49 282.266 199.893 281.459 200.7C280.652 201.506 280.249 202.643 280.249 204.11V204.715C280.249 206.071 280.561 207.135 281.184 207.905C281.807 208.675 282.596 209.06 283.549 209.06C284.539 209.06 285.547 208.638 286.574 207.795C287.637 206.915 288.609 205.686 289.489 204.11V199.875C288.096 199.618 286.592 199.49 284.979 199.49ZM309.301 185.08C310.841 185.08 312.693 185.3 314.856 185.74L314.746 189.7C312.839 189.26 311.098 189.04 309.521 189.04C306.221 189.04 304.571 190.103 304.571 192.23V192.725C304.571 193.385 304.736 193.916 305.066 194.32C305.433 194.723 306.074 195.145 306.991 195.585L312.161 198.005C315.278 199.471 316.836 201.616 316.836 204.44V205.65C316.799 208.18 316.029 210.086 314.526 211.37C313.059 212.616 310.731 213.24 307.541 213.24C305.891 213.24 303.526 212.855 300.446 212.085L300.666 207.905C303.416 208.711 305.671 209.115 307.431 209.115C309.228 209.115 310.474 208.876 311.171 208.4C311.868 207.886 312.216 207.061 312.216 205.925V205.375C312.216 204.495 312.033 203.798 311.666 203.285C311.336 202.771 310.768 202.331 309.961 201.965L304.626 199.6C303.013 198.866 301.821 197.986 301.051 196.96C300.318 195.933 299.951 194.741 299.951 193.385V192.615C300.024 190.121 300.794 188.251 302.261 187.005C303.764 185.721 306.111 185.08 309.301 185.08ZM348.397 185.08C350.744 185.08 352.54 185.886 353.787 187.5C355.034 189.076 355.657 191.331 355.657 194.265V212.58H350.982V194.925C350.982 191.258 349.809 189.425 347.462 189.425C346.435 189.425 345.372 189.828 344.272 190.635C343.209 191.441 342.274 192.541 341.467 193.935V212.58H336.792V194.925C336.792 191.258 335.619 189.425 333.272 189.425C332.245 189.425 331.182 189.828 330.082 190.635C329.019 191.441 328.084 192.541 327.277 193.935V212.58H322.602V185.74H327.002V189.755C327.955 188.251 329.055 187.096 330.302 186.29C331.549 185.483 332.85 185.08 334.207 185.08C335.894 185.08 337.305 185.52 338.442 186.4C339.579 187.243 340.404 188.49 340.917 190.14C341.907 188.49 343.044 187.243 344.327 186.4C345.61 185.52 346.967 185.08 348.397 185.08ZM368.044 185.74V212.58H363.369V185.74H368.044ZM365.679 174.905C366.669 174.905 367.42 175.125 367.934 175.565C368.484 176.005 368.759 176.628 368.759 177.435V179.03C368.759 179.836 368.484 180.46 367.934 180.9C367.42 181.303 366.669 181.505 365.679 181.505C364.725 181.505 363.974 181.303 363.424 180.9C362.91 180.46 362.654 179.836 362.654 179.03V177.435C362.654 176.628 362.91 176.005 363.424 175.565C363.974 175.125 364.725 174.905 365.679 174.905ZM387.437 185.08C389.784 185.08 391.58 185.886 392.827 187.5C394.11 189.076 394.752 191.331 394.752 194.265V212.58H390.077V194.925C390.077 191.258 388.885 189.425 386.502 189.425C385.439 189.425 384.357 189.828 383.257 190.635C382.157 191.441 381.204 192.541 380.397 193.935V212.58H375.722V185.74H380.122V189.755C381.112 188.251 382.212 187.096 383.422 186.29C384.669 185.483 386.007 185.08 387.437 185.08Z" fill="white"/>
</svg>
