<svg width="107" height="491" viewBox="0 0 107 491" fill="none" xmlns="http://www.w3.org/2000/svg">
<path d="M6.75 420.75H18.3L18.3 449.25H105V462H18.3V490.5H6.75L6.75 420.75ZM30 372.853C30 364.253 31.95 358.003 35.85 354.103C39.65 350.103 45.75 348.103 54.15 348.103H105V360.253H93.3C102.3 366.053 106.8 372.603 106.8 379.903C106.8 385.703 104.8 390.353 100.8 393.853C96.8 397.253 91.35 398.953 84.45 398.953H80.25C74.25 398.953 69.3 396.903 65.4 392.803C61.4 388.703 59.4 383.203 59.4 376.303C59.4 372.503 60.05 367.353 61.35 360.853H53.1C48.8 360.853 45.7 361.853 43.8 363.853C41.9 365.753 40.95 368.753 40.95 372.853C40.95 377.653 41.7 384.403 43.2 393.103H32.25C30.75 383.703 30 376.953 30 372.853ZM69.3 373.153C69.3 377.353 70.4 380.553 72.6 382.753C74.8 384.953 77.9 386.053 81.9 386.053H83.55C87.25 386.053 90.15 385.203 92.25 383.503C94.35 381.803 95.4 379.653 95.4 377.053C95.4 374.353 94.25 371.603 91.95 368.803C89.55 365.903 86.2 363.253 81.9 360.853H70.35C69.65 364.653 69.3 368.753 69.3 373.153ZM30 273.37C30 271.97 30.1 270.87 30.3 270.07H44.7C44.4 271.57 44.25 273.52 44.25 275.92C44.25 282.92 47.75 288.47 54.75 292.57H105V305.32H31.8V293.32H42.75C38.65 290.62 35.5 287.62 33.3 284.32C31.1 280.92 30 277.27 30 273.37ZM31.8 221.291H105V234.041H31.8V221.291ZM2.24999 227.741C2.24999 225.041 2.84999 222.991 4.04999 221.591C5.25 220.091 6.95 219.341 9.14999 219.341H13.5C15.7 219.341 17.4 220.091 18.6 221.591C19.7 222.991 20.25 225.041 20.25 227.741C20.25 230.341 19.7 232.391 18.6 233.891C17.4 235.291 15.7 235.991 13.5 235.991H9.14999C6.95 235.991 5.25 235.291 4.04999 233.891C2.84999 232.391 2.24999 230.341 2.24999 227.741ZM0.749992 150.85C0.749992 147.55 1.09999 144.4 1.8 141.4H12C11.5 144.4 11.25 147.5 11.25 150.7C11.25 153.8 12.25 156.25 14.25 158.05C16.25 159.75 19.3 160.6 23.4 160.6H31.8V145.6H42.3V160.6H105V173.35H42.3V183.85H31.8V173.35H24.15C16.35 173.25 10.5 171.3 6.6 167.5C2.69999 163.7 0.749992 158.15 0.749992 150.85ZM0.749992 82.9395C0.749992 79.6395 1.09999 76.4894 1.8 73.4894H12C11.5 76.4894 11.25 79.5895 11.25 82.7895C11.25 85.8895 12.25 88.3395 14.25 90.1395C16.25 91.8395 19.3 92.6895 23.4 92.6895H31.8L31.8 77.6894H42.3L42.3 92.6895H105V105.439H42.3V115.939H31.8V105.439H24.15C16.35 105.339 10.5 103.389 6.6 99.5895C2.69999 95.7895 0.749992 90.2395 0.749992 82.9395ZM30 20.7363C30 16.5363 30.6 11.4863 31.8 5.58633L42.6 5.88633C41.4 11.0863 40.8 15.8363 40.8 20.1363C40.8 29.1363 43.7 33.6363 49.5 33.6363H50.85C52.65 33.6363 54.1 33.1863 55.2 32.2863C56.3 31.2863 57.45 29.5363 58.65 27.0363L65.25 12.9363C69.25 4.43633 75.1 0.186328 82.8 0.186328H86.1C93 0.286326 98.2 2.38633 101.7 6.48633C105.1 10.4863 106.8 16.8363 106.8 25.5363C106.8 30.0363 105.75 36.4863 103.65 44.8863L92.25 44.2863C94.45 36.7863 95.55 30.6363 95.55 25.8363C95.55 20.9363 94.9 17.5363 93.6 15.6363C92.2 13.7363 89.95 12.7863 86.85 12.7863H85.35C82.95 12.7863 81.05 13.2863 79.65 14.2863C78.25 15.1863 77.05 16.7363 76.05 18.9363L69.6 33.4863C67.6 37.8863 65.2 41.1363 62.4 43.2363C59.6 45.2363 56.35 46.2363 52.65 46.2363H50.55C43.75 46.0363 38.65 43.9363 35.25 39.9363C31.75 35.8363 30 29.4363 30 20.7363Z" fill="black"/>
</svg>
